# xmcd
#
# Track frame offsets:
#	150
#	14239
#	28595
#	51294
#	60758
#	73423
#	82167
#	93976
#	106896
#	111921
#	131560
#
# Disc length: 1892 seconds
# Revision: 0
# Processed by: cddbd v1.5.2PL0 Copyright (c) Steve Scherf et al.
# Submitted via: dBpowerAMP V12.0
#
DISCID=9907620b
DTITLE=Joey Wright - Hatch
DYEAR=2010
DGENRE=Country
TTITLE0=Genius
TTITLE1=The Scar
TTITLE2=Sunrise
TTITLE3=Big Baby
TTITLE4=Expectations Are The Killer
TTITLE5=Lost In A Dream
TTITLE6=Strollin'
TTITLE7=The Atmosphere
TTITLE8=Lost In A Dream (Reprise)
TTITLE9=Hives
TTITLE10=Love Isn't Wrong
EXTD=
EXTT0=
EXTT1=
EXTT2=
EXTT3=
EXTT4=
EXTT5=
EXTT6=
EXTT7=
EXTT8=
EXTT9=
EXTT10=
PLAYORDER=
